<svg id="svg" version="1.1" xmlns="http://www.w3.org/2000/svg" xmlns:xlink="http://www.w3.org/1999/xlink" width="400" height="467.222884386174" viewBox="0, 0, 400,467.222884386174"><g id="svgg"><path id="path0" d="M366.306 28.952 C 365.925 29.242,365.730 29.596,365.873 29.740 C 366.016 29.883,365.884 30.000,365.579 30.000 C 365.274 30.000,364.299 30.708,363.412 31.573 C 362.526 32.438,360.238 34.598,358.329 36.373 C 356.420 38.148,354.912 39.600,354.976 39.600 C 355.215 39.600,347.156 47.500,343.755 50.600 C 341.824 52.360,339.800 54.295,339.256 54.900 C 338.713 55.505,338.105 56.000,337.907 56.000 C 337.709 56.000,336.941 56.585,336.200 57.300 C 334.223 59.209,333.036 60.200,332.725 60.200 C 332.574 60.200,331.928 60.785,331.289 61.500 C 330.651 62.215,329.933 62.800,329.693 62.800 C 329.454 62.800,328.923 63.205,328.514 63.700 C 327.813 64.548,327.005 65.111,324.906 66.210 C 324.414 66.468,324.100 66.766,324.207 66.874 C 324.314 66.981,323.411 67.569,322.201 68.182 C 320.990 68.794,320.000 69.437,320.000 69.609 C 320.000 69.782,319.012 70.333,317.805 70.833 C 316.598 71.334,315.697 71.830,315.803 71.936 C 316.033 72.166,313.467 73.351,311.884 73.745 C 311.270 73.898,310.860 74.173,310.973 74.357 C 311.086 74.540,309.760 75.118,308.026 75.642 C 306.292 76.165,304.940 76.703,305.023 76.837 C 305.180 77.091,298.643 78.800,297.514 78.800 C 297.158 78.800,296.807 78.963,296.733 79.161 C 296.180 80.662,272.221 80.720,271.200 79.223 C 271.026 78.969,269.431 78.561,265.600 77.792 C 263.219 77.315,262.594 77.115,262.375 76.759 C 262.246 76.551,261.759 76.308,261.291 76.218 C 259.227 75.820,256.054 74.636,256.242 74.333 C 256.355 74.150,256.191 74.000,255.877 74.000 C 255.052 74.000,251.053 72.313,250.706 71.819 C 250.544 71.589,250.409 71.542,250.406 71.716 C 250.403 71.889,250.175 71.837,249.900 71.600 C 249.297 71.079,246.624 69.650,243.507 68.182 C 242.246 67.587,241.311 66.944,241.430 66.751 C 241.550 66.558,241.439 66.400,241.185 66.400 C 240.931 66.400,240.225 66.045,239.617 65.612 C 239.008 65.178,238.410 64.924,238.287 65.046 C 238.165 65.168,237.864 64.893,237.618 64.434 C 237.373 63.975,236.940 63.600,236.656 63.600 C 236.180 63.600,233.048 61.359,230.214 58.991 C 229.562 58.446,228.801 58.000,228.523 58.000 C 228.246 58.000,227.724 57.550,227.363 57.000 C 227.003 56.450,226.506 56.000,226.258 56.000 C 226.011 56.000,225.357 55.550,224.804 55.000 C 224.252 54.451,222.990 53.364,222.000 52.586 C 220.045 51.048,215.872 47.253,211.792 43.300 C 210.372 41.925,209.104 40.800,208.974 40.800 C 208.601 40.800,205.200 37.303,205.200 36.919 C 205.200 35.309,200.070 31.952,199.204 32.996 C 198.932 33.323,198.570 33.505,198.400 33.400 C 198.039 33.177,197.111 34.178,197.406 34.473 C 197.515 34.582,197.244 34.998,196.802 35.398 C 196.361 35.797,196.000 36.034,196.000 35.924 C 196.000 35.814,194.639 37.046,192.975 38.662 C 191.312 40.278,189.782 41.600,189.575 41.600 C 189.369 41.600,189.245 41.817,189.300 42.082 C 189.355 42.347,189.192 42.572,188.939 42.582 C 188.685 42.592,187.695 43.360,186.739 44.289 C 185.782 45.217,183.470 47.245,181.600 48.794 C 179.730 50.343,177.834 51.968,177.386 52.405 C 176.938 52.842,176.357 53.200,176.095 53.200 C 175.833 53.200,175.324 53.650,174.963 54.200 C 174.603 54.750,174.141 55.200,173.938 55.200 C 173.513 55.200,171.531 56.585,170.091 57.887 C 169.552 58.375,168.771 58.882,168.355 59.014 C 167.940 59.146,167.600 59.418,167.600 59.619 C 167.600 59.820,166.880 60.351,166.000 60.800 C 165.120 61.249,164.400 61.793,164.400 62.008 C 164.400 62.224,164.222 62.400,164.004 62.400 C 163.787 62.400,162.572 63.120,161.304 63.999 C 160.037 64.879,158.775 65.599,158.500 65.599 C 158.225 65.600,157.683 65.917,157.297 66.303 C 156.910 66.690,155.560 67.530,154.297 68.169 C 153.033 68.808,152.000 69.454,152.000 69.605 C 152.000 69.756,150.920 70.309,149.600 70.833 C 148.280 71.357,147.200 71.902,147.200 72.044 C 147.200 72.186,146.075 72.718,144.700 73.226 C 143.325 73.734,142.110 74.254,142.000 74.381 C 141.686 74.746,136.579 76.399,135.747 76.406 C 135.162 76.411,135.120 76.488,135.556 76.764 C 135.933 77.003,134.840 77.408,132.156 78.023 C 129.980 78.522,128.110 79.050,128.000 79.197 C 126.545 81.146,99.175 81.100,97.968 79.147 C 97.840 78.941,97.210 78.682,96.568 78.572 C 94.671 78.248,91.016 77.144,90.800 76.830 C 90.690 76.670,89.385 76.114,87.900 75.596 C 86.415 75.077,85.200 74.528,85.200 74.375 C 85.200 74.223,84.255 73.694,83.100 73.199 C 81.945 72.704,80.910 72.168,80.800 72.006 C 80.690 71.845,79.749 71.263,78.710 70.713 C 77.670 70.163,76.911 69.622,77.022 69.511 C 77.134 69.399,76.230 68.804,75.013 68.189 C 73.796 67.573,72.800 66.961,72.800 66.829 C 72.800 66.697,72.091 66.151,71.225 65.616 C 70.359 65.080,69.740 64.498,69.849 64.321 C 69.958 64.145,69.794 64.000,69.486 64.000 C 69.177 64.000,68.605 63.647,68.214 63.216 C 67.824 62.785,67.391 62.470,67.252 62.516 C 67.114 62.562,66.961 62.458,66.913 62.285 C 66.775 61.786,64.531 60.000,64.042 60.000 C 63.799 60.000,63.600 59.726,63.600 59.390 C 63.600 59.055,63.190 58.624,62.689 58.434 C 62.188 58.243,61.425 57.618,60.994 57.044 C 60.563 56.470,60.013 56.000,59.771 56.000 C 59.142 56.000,57.207 53.732,57.530 53.373 C 57.678 53.207,57.605 53.183,57.366 53.318 C 57.128 53.454,55.945 52.534,54.737 51.275 C 53.529 50.015,52.059 48.669,51.470 48.283 C 50.882 47.897,50.400 47.316,50.400 46.991 C 50.400 46.666,50.161 46.400,49.870 46.400 C 49.276 46.400,47.662 44.818,47.624 44.200 C 47.611 43.980,47.461 43.800,47.290 43.800 C 47.120 43.800,46.466 43.395,45.836 42.900 C 45.207 42.405,44.805 42.000,44.943 42.000 C 45.080 42.000,44.070 40.976,42.697 39.724 C 41.323 38.472,40.068 37.257,39.906 37.024 C 39.744 36.791,39.609 36.741,39.606 36.914 C 39.603 37.087,39.051 36.603,38.380 35.838 C 37.709 35.074,36.365 33.922,35.393 33.278 C 34.421 32.635,33.717 32.016,33.829 31.905 C 33.940 31.793,33.665 31.606,33.216 31.488 C 32.512 31.304,32.400 31.463,32.400 32.643 C 32.400 33.395,32.226 34.323,32.013 34.705 C 31.652 35.352,29.916 48.038,29.949 49.788 C 29.957 50.221,29.820 50.671,29.644 50.788 C 29.468 50.904,28.908 54.600,28.400 59.000 C 27.892 63.400,27.346 67.090,27.187 67.200 C 27.027 67.310,26.476 71.037,25.961 75.483 C 25.426 80.111,24.885 83.359,24.697 83.083 C 24.504 82.799,24.397 83.260,24.438 84.200 C 24.476 85.080,24.408 86.070,24.287 86.400 C 24.166 86.730,23.748 89.837,23.359 93.303 C 22.939 97.045,22.515 99.402,22.317 99.103 C 22.116 98.802,21.994 99.401,22.012 100.600 C 22.029 101.700,21.858 103.680,21.632 105.000 C 21.195 107.560,21.139 108.058,20.368 116.400 C 20.094 119.370,19.742 121.890,19.587 122.000 C 19.297 122.205,17.598 141.625,17.599 144.724 C 17.600 145.832,17.449 146.354,17.178 146.186 C 16.899 146.014,16.764 146.718,16.780 148.263 C 16.794 149.548,16.543 154.650,16.223 159.600 C 15.903 164.550,15.500 172.920,15.327 178.200 C 15.155 183.480,14.920 186.990,14.806 186.000 C 14.691 185.010,14.598 195.000,14.599 208.200 C 14.600 221.400,14.707 231.300,14.837 230.200 C 15.000 228.824,15.097 229.699,15.148 233.000 C 15.287 242.134,16.800 264.047,17.272 263.756 C 17.452 263.644,17.600 264.137,17.600 264.851 C 17.600 267.513,19.288 281.005,19.637 281.133 C 19.837 281.207,20.000 281.736,20.000 282.309 C 20.000 283.973,21.586 293.737,21.969 294.428 C 22.160 294.773,22.219 295.565,22.100 296.187 C 21.967 296.882,22.037 297.224,22.280 297.074 C 22.519 296.927,23.045 298.890,23.600 302.000 C 24.108 304.844,24.639 307.099,24.781 307.012 C 24.923 306.924,25.466 308.820,25.987 311.225 C 26.509 313.630,27.029 315.504,27.143 315.391 C 27.256 315.277,27.770 316.853,28.285 318.892 C 28.800 320.931,29.550 323.230,29.953 324.000 C 30.355 324.770,30.914 326.255,31.194 327.300 C 31.475 328.345,31.834 329.200,31.994 329.200 C 32.153 329.200,32.685 330.552,33.176 332.205 C 33.666 333.858,34.285 335.433,34.551 335.705 C 34.816 335.977,35.287 336.830,35.598 337.600 C 36.099 338.844,38.800 344.183,40.847 347.973 C 41.254 348.728,41.746 349.448,41.940 349.573 C 42.134 349.698,42.684 350.572,43.162 351.515 C 43.640 352.459,44.430 353.688,44.916 354.247 C 45.402 354.807,45.806 355.385,45.814 355.532 C 45.851 356.233,46.883 357.596,47.220 357.388 C 47.429 357.258,47.600 357.403,47.600 357.708 C 47.600 358.013,49.040 359.923,50.800 361.951 C 52.560 363.979,54.000 365.821,54.000 366.043 C 54.000 366.265,54.166 366.344,54.369 366.219 C 54.573 366.093,55.145 366.560,55.640 367.257 C 56.136 367.953,57.500 369.466,58.671 370.618 C 59.842 371.770,60.800 372.913,60.800 373.157 C 60.800 373.401,60.996 373.600,61.236 373.600 C 61.476 373.600,62.901 374.815,64.404 376.300 C 67.433 379.293,68.824 380.554,70.578 381.898 C 71.225 382.394,71.614 382.800,71.442 382.800 C 71.269 382.800,71.999 383.490,73.064 384.334 C 74.129 385.177,75.247 386.167,75.549 386.534 C 75.851 386.900,76.312 387.200,76.574 387.200 C 76.835 387.200,77.449 387.740,77.937 388.400 C 78.425 389.060,79.068 389.600,79.366 389.600 C 79.664 389.600,80.203 390.050,80.563 390.600 C 80.924 391.150,81.474 391.600,81.787 391.600 C 82.099 391.600,82.590 391.918,82.877 392.307 C 83.165 392.696,83.850 393.304,84.400 393.658 C 84.950 394.012,86.030 394.862,86.800 395.547 C 87.570 396.232,88.518 396.897,88.906 397.025 C 89.294 397.153,89.523 397.402,89.414 397.578 C 89.305 397.753,90.023 398.325,91.008 398.848 C 91.994 399.371,92.800 399.922,92.800 400.074 C 92.800 400.225,93.520 400.753,94.400 401.248 C 95.280 401.743,96.000 402.291,96.000 402.467 C 96.000 402.643,96.900 403.243,98.000 403.800 C 99.100 404.357,100.000 404.970,100.000 405.161 C 100.000 405.352,100.641 405.813,101.424 406.185 C 102.207 406.556,102.947 407.117,103.067 407.430 C 103.187 407.744,103.512 408.000,103.789 408.000 C 104.066 408.000,104.742 408.354,105.292 408.787 C 105.843 409.220,106.392 409.474,106.514 409.353 C 106.636 409.231,106.936 409.507,107.182 409.966 C 107.427 410.425,107.892 410.800,108.214 410.800 C 108.536 410.800,108.800 410.991,108.800 411.224 C 108.800 411.457,108.973 411.540,109.185 411.409 C 109.397 411.278,109.937 411.537,110.385 411.985 C 110.833 412.433,111.307 412.800,111.438 412.800 C 111.569 412.800,112.154 413.140,112.738 413.556 C 113.322 413.972,113.933 414.337,114.096 414.367 C 114.946 414.525,115.573 414.919,115.406 415.191 C 115.301 415.359,116.023 415.805,117.008 416.182 C 117.994 416.558,118.800 417.042,118.800 417.257 C 118.800 417.471,118.980 417.536,119.200 417.400 C 119.420 417.264,119.600 417.313,119.600 417.508 C 119.600 417.703,120.500 418.285,121.600 418.800 C 122.700 419.315,123.600 419.845,123.600 419.977 C 123.600 420.272,125.865 421.450,127.106 421.801 C 127.604 421.942,127.927 422.195,127.823 422.362 C 127.720 422.530,128.617 423.074,129.817 423.572 C 131.018 424.069,132.000 424.611,132.000 424.775 C 132.000 424.939,133.254 425.578,134.787 426.195 C 136.321 426.812,137.503 427.434,137.415 427.576 C 137.327 427.719,138.322 428.260,139.627 428.778 C 140.932 429.296,142.000 429.831,142.000 429.967 C 142.000 430.103,143.080 430.643,144.400 431.167 C 145.720 431.691,146.800 432.252,146.800 432.414 C 146.800 432.656,147.426 432.949,148.800 433.351 C 149.831 433.652,151.881 434.654,152.200 435.012 C 152.420 435.259,153.625 435.797,154.877 436.206 C 156.130 436.615,157.088 437.058,157.006 437.190 C 156.924 437.322,158.375 437.945,160.229 438.575 C 162.083 439.204,163.600 439.852,163.600 440.013 C 163.600 440.302,164.634 440.716,166.191 441.052 C 166.627 441.146,167.158 441.398,167.371 441.611 C 167.585 441.825,168.185 442.000,168.704 442.000 C 169.223 442.000,169.544 442.167,169.418 442.370 C 169.216 442.697,171.143 443.398,174.497 444.217 C 175.101 444.365,175.517 444.611,175.421 444.765 C 175.326 444.919,176.847 445.475,178.800 446.000 C 180.753 446.525,182.280 447.071,182.192 447.214 C 182.029 447.476,187.904 448.929,191.200 449.442 C 192.190 449.596,193.090 449.850,193.200 450.008 C 193.946 451.077,202.826 451.060,203.600 449.988 C 203.710 449.836,204.610 449.591,205.600 449.445 C 208.438 449.025,214.842 447.375,214.594 447.127 C 214.471 447.004,215.984 446.482,217.957 445.967 C 219.929 445.453,221.471 444.914,221.382 444.771 C 221.293 444.628,222.640 444.082,224.374 443.558 C 226.108 443.035,227.461 442.499,227.380 442.368 C 227.300 442.237,228.575 441.710,230.214 441.196 C 231.853 440.682,233.107 440.173,233.000 440.066 C 232.893 439.959,234.273 439.368,236.068 438.753 C 237.863 438.138,239.439 437.461,239.571 437.247 C 239.702 437.034,240.884 436.458,242.197 435.967 C 243.509 435.476,244.795 434.862,245.053 434.604 C 245.312 434.345,246.531 433.817,247.762 433.429 C 248.994 433.042,249.909 432.577,249.797 432.396 C 249.685 432.215,250.478 431.773,251.558 431.414 C 252.638 431.055,253.927 430.410,254.422 429.981 C 254.917 429.551,255.582 429.200,255.899 429.200 C 256.439 429.200,258.754 428.066,259.200 427.584 C 259.310 427.464,261.335 426.391,263.700 425.197 C 266.065 424.004,268.000 422.892,268.000 422.726 C 268.000 422.561,268.270 422.529,268.600 422.655 C 268.930 422.782,269.200 422.691,269.200 422.453 C 269.200 421.963,271.593 420.611,271.613 421.090 C 271.621 421.260,271.936 421.040,272.313 420.600 C 272.930 419.881,274.948 418.702,275.687 418.629 C 275.845 418.613,276.334 418.291,276.775 417.914 C 277.215 417.537,278.335 416.841,279.263 416.368 C 280.191 415.895,281.224 415.233,281.559 414.898 C 281.894 414.563,282.760 414.041,283.484 413.739 C 284.208 413.437,284.800 413.001,284.800 412.771 C 284.800 412.541,284.980 412.464,285.200 412.600 C 285.420 412.736,285.600 412.687,285.600 412.492 C 285.600 412.297,286.493 411.718,287.586 411.207 C 288.678 410.695,289.496 410.155,289.404 410.007 C 289.313 409.859,289.962 409.418,290.847 409.027 C 291.733 408.637,292.553 408.066,292.671 407.758 C 292.789 407.451,293.091 407.198,293.343 407.196 C 293.594 407.193,294.862 406.394,296.161 405.419 C 297.460 404.444,299.032 403.435,299.656 403.177 C 300.280 402.918,300.691 402.548,300.571 402.354 C 300.451 402.159,300.551 402.000,300.793 402.000 C 301.280 402.000,303.188 400.689,304.722 399.300 C 305.269 398.805,305.954 398.400,306.244 398.400 C 306.534 398.400,306.965 398.040,307.200 397.600 C 307.435 397.160,307.818 396.800,308.051 396.800 C 308.686 396.800,310.411 395.344,310.120 395.053 C 309.981 394.914,310.101 394.800,310.388 394.800 C 310.960 394.800,314.323 392.260,316.874 389.900 C 317.767 389.075,318.734 388.400,319.025 388.400 C 319.315 388.400,319.681 388.192,319.838 387.938 C 320.032 387.625,319.943 387.585,319.562 387.815 C 319.084 388.103,319.082 388.052,319.545 387.481 C 319.845 387.111,320.225 386.892,320.389 386.994 C 320.554 387.095,321.319 386.508,322.090 385.689 C 322.861 384.870,324.727 383.120,326.236 381.800 C 331.930 376.821,339.952 368.905,341.690 366.550 C 342.190 365.871,343.185 364.824,343.901 364.222 C 344.617 363.620,345.101 362.963,344.977 362.764 C 344.854 362.564,345.005 362.400,345.313 362.400 C 345.622 362.400,346.217 361.762,346.637 360.981 C 347.057 360.201,347.805 359.297,348.300 358.972 C 348.795 358.647,349.200 358.126,349.200 357.813 C 349.200 357.501,349.518 357.010,349.908 356.723 C 350.297 356.435,351.062 355.345,351.607 354.300 C 352.152 353.255,352.736 352.400,352.905 352.400 C 353.073 352.400,353.604 351.590,354.085 350.600 C 354.566 349.610,355.101 348.800,355.274 348.800 C 355.571 348.800,356.797 346.359,357.020 345.325 C 357.076 345.064,357.472 344.475,357.899 344.016 C 358.326 343.557,359.011 342.196,359.421 340.991 C 359.831 339.786,360.284 338.800,360.429 338.800 C 360.574 338.800,361.088 337.716,361.571 336.392 C 362.054 335.067,362.623 334.090,362.834 334.221 C 363.046 334.352,363.170 334.310,363.110 334.128 C 362.952 333.652,364.902 327.882,365.396 327.366 C 365.625 327.127,366.146 325.644,366.554 324.071 C 367.003 322.339,367.459 321.313,367.711 321.468 C 367.971 321.629,368.042 321.403,367.900 320.863 C 367.776 320.388,367.809 320.000,367.972 320.000 C 368.135 320.000,368.598 318.560,369.000 316.800 C 369.402 315.040,369.856 313.600,370.009 313.600 C 370.162 313.600,370.794 311.215,371.413 308.300 C 372.031 305.385,372.663 302.910,372.817 302.800 C 372.971 302.690,373.514 300.260,374.025 297.400 C 374.535 294.540,375.079 292.110,375.234 292.000 C 375.389 291.890,375.926 288.740,376.428 285.000 C 376.930 281.260,377.466 278.110,377.620 278.000 C 377.907 277.795,379.585 262.272,379.631 259.400 C 379.651 258.115,379.727 257.957,380.016 258.600 C 380.273 259.170,380.380 258.594,380.390 256.600 C 380.398 255.060,380.573 251.752,380.779 249.249 C 382.419 229.331,382.144 163.788,380.400 159.000 C 380.240 158.560,380.170 156.670,380.244 154.800 C 380.334 152.517,380.264 151.729,380.029 152.400 C 379.729 153.258,379.675 153.144,379.644 151.600 C 379.553 147.007,377.855 126.985,377.547 126.867 C 377.356 126.793,377.203 126.253,377.207 125.667 C 377.223 123.386,375.471 106.989,375.192 106.800 C 375.029 106.690,374.771 105.340,374.617 103.800 C 374.464 102.260,374.266 100.280,374.176 99.400 C 374.086 98.520,373.794 94.785,373.526 91.100 C 373.258 87.415,372.888 84.400,372.703 84.400 C 372.519 84.400,372.392 83.725,372.421 82.900 C 372.505 80.550,370.857 58.785,370.460 57.000 C 370.265 56.120,370.171 54.140,370.252 52.600 C 370.339 50.958,370.266 50.111,370.076 50.552 C 369.883 51.002,369.461 46.915,369.023 40.352 C 368.228 28.423,368.040 27.636,366.306 28.952 M200.937 71.031 C 239.221 105.718,296.479 109.680,344.676 80.978 C 349.809 77.921,350.400 77.758,350.400 79.398 C 350.400 79.920,350.942 84.365,351.604 89.274 C 355.057 114.881,356.613 127.731,357.575 138.600 C 366.638 240.986,358.103 310.497,332.217 345.140 C 326.642 352.602,307.999 370.591,298.354 377.817 C 297.779 378.247,295.529 379.948,293.354 381.596 C 269.680 399.536,231.697 419.474,204.800 428.081 C 199.581 429.751,197.008 429.739,191.600 428.019 C 169.805 421.088,138.471 405.537,115.712 390.356 C 99.150 379.308,82.421 365.394,72.200 354.164 C 70.220 351.989,68.267 349.847,67.859 349.404 C 53.603 333.925,43.612 305.915,38.822 268.000 C 36.392 248.763,35.797 237.022,35.821 208.800 C 35.859 165.126,38.422 134.277,46.429 81.111 C 46.849 78.322,46.964 78.060,47.616 78.409 C 48.013 78.621,49.837 79.706,51.669 80.820 C 93.408 106.197,145.192 106.392,182.690 81.314 C 186.869 78.519,196.300 71.004,197.549 69.473 C 198.286 68.569,198.150 68.506,200.937 71.031 " stroke="none" fill="#fb546c" fill-rule="evenodd"></path><path id="path1" d="M362.200 32.469 C 361.037 33.676,361.033 33.694,362.066 33.033 C 362.653 32.659,363.232 32.093,363.354 31.776 C 363.655 30.992,363.577 31.038,362.200 32.469 M31.709 34.009 C 31.676 34.453,31.818 34.713,32.024 34.585 C 32.479 34.304,32.527 33.200,32.085 33.200 C 31.912 33.200,31.743 33.564,31.709 34.009 M206.868 38.900 C 207.896 39.945,208.832 40.800,208.948 40.800 C 209.240 40.800,206.781 38.283,205.800 37.576 C 205.360 37.259,205.841 37.855,206.868 38.900 M368.901 39.000 C 368.905 39.880,368.987 40.193,369.083 39.695 C 369.179 39.198,369.175 38.478,369.075 38.095 C 368.975 37.713,368.896 38.120,368.901 39.000 M349.794 44.490 C 347.157 47.180,345.601 48.845,346.335 48.190 C 348.589 46.181,355.102 39.600,354.837 39.600 C 354.700 39.600,352.430 41.801,349.794 44.490 M44.843 42.100 C 44.939 42.155,46.094 43.190,47.409 44.400 L 49.800 46.600 47.614 44.300 C 46.411 43.035,45.256 42.000,45.047 42.000 C 44.838 42.000,44.746 42.045,44.843 42.100 M369.293 44.400 C 369.293 45.170,369.375 45.485,369.476 45.100 C 369.576 44.715,369.576 44.085,369.476 43.700 C 369.375 43.315,369.293 43.630,369.293 44.400 M185.322 45.429 L 184.200 46.458 185.500 45.554 C 186.215 45.057,186.800 44.593,186.800 44.525 C 186.800 44.209,186.358 44.480,185.322 45.429 M369.625 50.020 C 369.649 51.317,369.674 51.342,370.038 50.432 C 370.294 49.791,370.285 49.325,370.012 49.052 C 369.729 48.769,369.608 49.073,369.625 50.020 M29.200 50.200 C 29.200 50.530,29.380 50.800,29.600 50.800 C 29.820 50.800,30.000 50.530,30.000 50.200 C 30.000 49.870,29.820 49.600,29.600 49.600 C 29.380 49.600,29.200 49.870,29.200 50.200 M58.056 54.600 C 58.782 55.370,59.510 56.000,59.675 56.000 C 59.839 56.000,59.343 55.370,58.573 54.600 C 57.803 53.830,57.075 53.200,56.954 53.200 C 56.834 53.200,57.329 53.830,58.056 54.600 M339.967 53.700 C 339.197 54.357,337.828 56.000,338.050 56.000 C 338.146 56.000,338.818 55.370,339.544 54.600 C 340.864 53.201,341.073 52.756,339.967 53.700 M370.028 55.100 C 370.094 56.741,370.743 57.439,370.772 55.900 C 370.787 55.075,370.620 54.400,370.400 54.400 C 370.180 54.400,370.013 54.715,370.028 55.100 M27.067 65.467 C 26.652 65.882,26.753 67.200,27.200 67.200 C 27.420 67.200,27.600 66.750,27.600 66.200 C 27.600 65.153,27.508 65.026,27.067 65.467 M371.301 66.600 C 371.305 67.480,371.387 67.793,371.483 67.295 C 371.579 66.798,371.575 66.078,371.475 65.695 C 371.375 65.313,371.296 65.720,371.301 66.600 M197.549 69.473 C 196.300 71.004,186.869 78.519,182.690 81.314 C 145.192 106.392,93.408 106.197,51.669 80.820 C 49.837 79.706,48.013 78.621,47.616 78.409 C 46.964 78.060,46.849 78.322,46.429 81.111 C 38.422 134.277,35.859 165.126,35.821 208.800 C 35.797 237.022,36.392 248.763,38.822 268.000 C 43.612 305.915,53.603 333.925,67.859 349.404 C 68.267 349.847,70.220 351.989,72.200 354.164 C 80.549 363.337,93.373 374.409,108.012 385.082 C 130.192 401.254,167.175 420.251,191.600 428.019 C 197.008 429.739,199.581 429.751,204.800 428.081 C 231.697 419.474,269.680 399.536,293.354 381.596 C 295.529 379.948,297.779 378.247,298.354 377.817 C 312.598 367.146,331.151 348.025,337.312 337.666 C 357.896 303.055,365.492 237.785,358.778 153.200 C 356.953 130.213,356.101 122.617,351.604 89.274 C 350.942 84.365,350.400 79.920,350.400 79.398 C 350.400 77.758,349.809 77.921,344.676 80.978 C 296.479 109.680,239.221 105.718,200.937 71.031 C 198.150 68.506,198.286 68.569,197.549 69.473 M371.693 72.000 C 371.693 72.770,371.775 73.085,371.876 72.700 C 371.976 72.315,371.976 71.685,371.876 71.300 C 371.775 70.915,371.693 71.230,371.693 72.000 M309.819 74.635 C 308.990 75.241,309.321 75.331,310.573 74.841 C 310.999 74.674,311.177 74.433,310.969 74.304 C 310.761 74.176,310.244 74.325,309.819 74.635 M372.101 77.400 C 372.105 78.280,372.187 78.593,372.283 78.095 C 372.379 77.598,372.375 76.878,372.275 76.495 C 372.175 76.113,372.096 76.520,372.101 77.400 M98.000 79.200 C 98.000 79.420,98.270 79.600,98.600 79.600 C 98.930 79.600,99.200 79.420,99.200 79.200 C 99.200 78.980,98.930 78.800,98.600 78.800 C 98.270 78.800,98.000 78.980,98.000 79.200 M126.800 79.200 C 126.800 79.420,127.070 79.600,127.400 79.600 C 127.730 79.600,128.000 79.420,128.000 79.200 C 128.000 78.980,127.730 78.800,127.400 78.800 C 127.070 78.800,126.800 78.980,126.800 79.200 M271.200 79.200 C 271.200 79.420,271.470 79.600,271.800 79.600 C 272.130 79.600,272.400 79.420,272.400 79.200 C 272.400 78.980,272.130 78.800,271.800 78.800 C 271.470 78.800,271.200 78.980,271.200 79.200 M277.700 80.276 C 278.085 80.376,278.715 80.376,279.100 80.276 C 279.485 80.175,279.170 80.093,278.400 80.093 C 277.630 80.093,277.315 80.175,277.700 80.276 M288.900 80.276 C 289.285 80.376,289.915 80.376,290.300 80.276 C 290.685 80.175,290.370 80.093,289.600 80.093 C 288.830 80.093,288.515 80.175,288.900 80.276 M106.305 80.683 C 106.802 80.779,107.522 80.775,107.905 80.675 C 108.287 80.575,107.880 80.496,107.000 80.501 C 106.120 80.505,105.807 80.587,106.305 80.683 M117.700 80.676 C 118.085 80.776,118.715 80.776,119.100 80.676 C 119.485 80.575,119.170 80.493,118.400 80.493 C 117.630 80.493,117.315 80.575,117.700 80.676 M372.400 83.200 C 372.400 83.860,372.580 84.400,372.800 84.400 C 373.020 84.400,373.200 83.860,373.200 83.200 C 373.200 82.540,373.020 82.000,372.800 82.000 C 372.580 82.000,372.400 82.540,372.400 83.200 M373.301 88.600 C 373.305 89.480,373.387 89.793,373.483 89.295 C 373.579 88.798,373.575 88.078,373.475 87.695 C 373.375 87.313,373.296 87.720,373.301 88.600 M199.630 91.045 C 206.468 98.415,228.650 107.760,248.400 111.592 C 277.232 117.185,317.919 114.304,335.562 105.419 C 339.131 103.622,338.565 101.866,340.785 121.600 C 351.400 215.959,345.834 292.652,325.802 328.031 C 314.890 347.303,284.870 372.536,250.000 391.745 C 241.481 396.438,231.649 401.342,223.400 405.012 C 212.986 409.646,200.283 414.400,198.315 414.400 C 196.666 414.400,182.475 409.214,175.600 406.100 C 174.390 405.552,171.240 404.122,168.600 402.923 C 133.263 386.876,98.915 362.556,78.602 339.200 C 65.621 324.274,57.692 300.419,53.007 262.200 C 52.689 259.599,51.658 246.000,51.143 237.600 C 50.530 227.595,50.527 194.584,51.139 182.400 C 52.007 165.095,53.401 143.758,53.804 141.600 C 53.907 141.050,54.369 136.460,54.830 131.400 C 55.751 121.316,57.744 105.138,58.146 104.488 C 58.303 104.233,59.198 104.507,60.500 105.210 C 81.192 116.374,131.959 117.547,164.321 107.609 C 176.773 103.785,193.200 95.441,197.389 90.812 C 198.329 89.774,198.464 89.788,199.630 91.045 M373.693 94.000 C 373.693 94.770,373.775 95.085,373.876 94.700 C 373.976 94.315,373.976 93.685,373.876 93.300 C 373.775 92.915,373.693 93.230,373.693 94.000 M21.606 102.500 C 21.611 103.228,21.686 103.285,22.000 102.800 C 22.501 102.024,22.501 101.600,22.000 101.600 C 21.780 101.600,21.603 102.005,21.606 102.500 M374.800 106.000 C 374.800 106.440,374.980 106.800,375.200 106.800 C 375.420 106.800,375.600 106.440,375.600 106.000 C 375.600 105.560,375.420 105.200,375.200 105.200 C 374.980 105.200,374.800 105.560,374.800 106.000 M19.200 121.000 C 19.200 121.550,19.380 122.000,19.600 122.000 C 19.820 122.000,20.000 121.550,20.000 121.000 C 20.000 120.450,19.820 120.000,19.600 120.000 C 19.380 120.000,19.200 120.450,19.200 121.000 M377.200 125.800 C 377.200 126.350,377.380 126.800,377.600 126.800 C 377.820 126.800,378.000 126.350,378.000 125.800 C 378.000 125.250,377.820 124.800,377.600 124.800 C 377.380 124.800,377.200 125.250,377.200 125.800 M18.493 129.600 C 18.493 130.370,18.575 130.685,18.676 130.300 C 18.776 129.915,18.776 129.285,18.676 128.900 C 18.575 128.515,18.493 128.830,18.493 129.600 M18.093 134.400 C 18.093 135.170,18.175 135.485,18.276 135.100 C 18.376 134.715,18.376 134.085,18.276 133.700 C 18.175 133.315,18.093 133.630,18.093 134.400 M378.493 135.200 C 378.493 135.970,378.575 136.285,378.676 135.900 C 378.776 135.515,378.776 134.885,378.676 134.500 C 378.575 134.115,378.493 134.430,378.493 135.200 M17.701 139.400 C 17.705 140.280,17.787 140.593,17.883 140.095 C 17.979 139.598,17.975 138.878,17.875 138.495 C 17.775 138.113,17.696 138.520,17.701 139.400 M378.893 140.400 C 378.893 141.170,378.975 141.485,379.076 141.100 C 379.176 140.715,379.176 140.085,379.076 139.700 C 378.975 139.315,378.893 139.630,378.893 140.400 M17.067 143.867 C 16.657 144.277,16.751 145.922,17.200 146.200 C 17.438 146.347,17.600 145.871,17.600 145.024 C 17.600 143.562,17.528 143.405,17.067 143.867 M379.301 145.800 C 379.305 146.680,379.387 146.993,379.483 146.495 C 379.579 145.998,379.575 145.278,379.475 144.895 C 379.375 144.513,379.296 144.920,379.301 145.800 M16.406 150.500 C 16.403 151.325,16.469 152.000,16.553 152.000 C 16.900 152.000,17.054 150.013,16.746 149.526 C 16.533 149.191,16.410 149.544,16.406 150.500 M379.647 151.600 C 379.667 153.262,379.696 153.310,380.017 152.234 C 380.223 151.547,380.214 150.808,379.995 150.434 C 379.730 149.981,379.631 150.312,379.647 151.600 M16.114 157.400 C 16.117 158.500,16.195 158.903,16.287 158.295 C 16.379 157.686,16.377 156.786,16.282 156.295 C 16.187 155.803,16.111 156.300,16.114 157.400 M380.150 156.987 C 380.026 157.310,380.107 158.075,380.331 158.687 C 380.719 159.752,380.738 159.727,380.768 158.100 C 380.801 156.370,380.556 155.929,380.150 156.987 M15.720 164.400 C 15.720 165.610,15.795 166.105,15.887 165.500 C 15.978 164.895,15.978 163.905,15.887 163.300 C 15.795 162.695,15.720 163.190,15.720 164.400 M380.901 165.000 C 380.905 165.880,380.987 166.193,381.083 165.695 C 381.179 165.198,381.175 164.478,381.075 164.095 C 380.975 163.713,380.896 164.120,380.901 165.000 M15.328 173.200 C 15.328 174.630,15.401 175.215,15.489 174.500 C 15.578 173.785,15.578 172.615,15.489 171.900 C 15.401 171.185,15.328 171.770,15.328 173.200 M381.328 174.400 C 381.328 175.830,381.401 176.415,381.489 175.700 C 381.578 174.985,381.578 173.815,381.489 173.100 C 381.401 172.385,381.328 172.970,381.328 174.400 M14.686 181.048 C 14.415 181.318,14.716 187.249,15.015 187.549 C 15.117 187.650,15.200 186.173,15.200 184.267 C 15.200 180.822,15.160 180.573,14.686 181.048 M381.746 186.200 C 381.747 188.400,381.814 189.249,381.895 188.087 C 381.976 186.924,381.976 185.124,381.893 184.087 C 381.811 183.049,381.745 184.000,381.746 186.200 M14.000 208.576 C 14.000 215.125,14.144 218.800,14.400 218.800 C 14.656 218.800,14.800 215.208,14.800 208.824 C 14.800 202.604,14.649 198.754,14.400 198.600 C 14.137 198.438,14.000 201.863,14.000 208.576 M171.789 199.205 C 135.203 204.174,137.218 257.077,174.040 258.306 C 184.405 258.652,191.798 255.535,197.992 248.209 C 200.364 245.404,200.752 246.101,194.225 241.440 C 187.934 236.947,188.546 237.092,186.114 239.524 C 177.808 247.830,164.673 244.192,162.001 232.845 C 158.382 217.473,175.128 207.109,185.902 218.054 L 187.923 220.107 190.114 218.353 C 192.363 216.554,197.912 212.245,199.089 211.384 C 200.449 210.390,194.448 204.565,189.513 202.089 C 184.950 199.800,176.968 198.501,171.789 199.205 M285.708 199.226 C 253.432 203.424,248.624 246.630,279.288 256.923 C 289.260 260.270,304.212 257.748,312.600 251.303 L 314.600 249.767 314.706 236.883 L 314.811 224.000 301.595 224.000 L 288.378 224.000 288.489 229.700 L 288.600 235.400 294.200 235.600 L 299.800 235.800 299.800 239.194 L 299.800 242.588 297.800 243.588 C 294.645 245.166,287.251 245.085,283.673 243.433 C 273.805 238.877,271.915 224.715,280.115 216.767 C 284.944 212.087,293.980 211.991,300.902 216.546 L 303.603 218.324 305.482 216.062 C 306.516 214.818,308.257 212.720,309.352 211.400 C 310.446 210.080,311.685 208.612,312.105 208.138 C 314.205 205.766,302.367 200.137,293.260 199.178 C 289.388 198.771,289.195 198.772,285.708 199.226 M221.600 199.745 C 210.309 202.389,204.324 210.272,205.895 220.425 C 207.067 227.994,211.987 231.596,226.298 235.362 C 235.342 237.742,236.933 238.617,236.933 241.208 C 236.933 247.142,223.468 246.414,213.924 239.965 L 211.648 238.426 210.924 239.366 C 210.526 239.882,208.607 242.221,206.660 244.563 C 202.622 249.418,202.615 248.966,206.779 251.786 C 224.047 263.477,249.017 259.185,252.406 243.944 C 254.933 232.581,249.429 226.468,232.687 222.044 C 223.171 219.529,221.600 218.671,221.600 215.987 C 221.600 211.108,232.164 211.158,240.545 216.078 C 243.809 217.994,243.171 218.383,247.950 211.560 C 251.824 206.029,251.733 206.841,248.700 204.867 C 241.610 200.254,229.333 197.933,221.600 199.745 M83.067 200.267 C 82.920 200.413,82.800 213.283,82.800 228.867 L 82.800 257.200 90.600 257.200 L 98.400 257.200 98.400 242.024 C 98.400 233.677,98.540 226.761,98.711 226.655 C 98.881 226.550,104.403 233.379,110.980 241.832 L 122.940 257.200 129.870 257.200 L 136.800 257.200 136.800 228.591 L 136.800 199.983 129.100 200.091 L 121.400 200.200 121.200 215.163 L 121.000 230.127 109.265 215.063 L 97.530 200.000 90.432 200.000 C 86.528 200.000,83.213 200.120,83.067 200.267 M382.161 208.800 C 382.161 212.210,382.222 213.605,382.297 211.900 C 382.372 210.195,382.372 207.405,382.297 205.700 C 382.222 203.995,382.161 205.390,382.161 208.800 M381.742 230.200 C 381.741 232.180,381.808 233.040,381.892 232.112 C 381.976 231.184,381.977 229.564,381.895 228.512 C 381.812 227.460,381.743 228.220,381.742 230.200 M14.648 231.271 C 14.482 233.058,14.536 234.296,14.791 234.551 C 15.070 234.830,15.200 233.917,15.200 231.680 C 15.200 227.638,15.000 227.489,14.648 231.271 M381.320 240.800 C 381.320 242.010,381.395 242.505,381.487 241.900 C 381.578 241.295,381.578 240.305,381.487 239.700 C 381.395 239.095,381.320 239.590,381.320 240.800 M15.320 242.000 C 15.320 243.210,15.395 243.705,15.487 243.100 C 15.578 242.495,15.578 241.505,15.487 240.900 C 15.395 240.295,15.320 240.790,15.320 242.000 M380.901 248.200 C 380.905 249.080,380.987 249.393,381.083 248.895 C 381.179 248.398,381.175 247.678,381.075 247.295 C 380.975 246.913,380.896 247.320,380.901 248.200 M15.701 249.000 C 15.705 249.880,15.787 250.193,15.883 249.695 C 15.979 249.198,15.975 248.478,15.875 248.095 C 15.775 247.713,15.696 248.120,15.701 249.000 M380.230 253.867 C 380.089 254.234,380.160 254.720,380.387 254.947 C 380.671 255.231,380.800 255.023,380.800 254.280 C 380.800 253.046,380.600 252.901,380.230 253.867 M16.093 254.800 C 16.093 255.570,16.175 255.885,16.276 255.500 C 16.376 255.115,16.376 254.485,16.276 254.100 C 16.175 253.715,16.093 254.030,16.093 254.800 M379.625 259.180 C 379.608 260.127,379.729 260.431,380.012 260.148 C 380.285 259.875,380.294 259.409,380.038 258.768 C 379.674 257.858,379.649 257.883,379.625 259.180 M16.493 260.000 C 16.493 260.770,16.575 261.085,16.676 260.700 C 16.776 260.315,16.776 259.685,16.676 259.300 C 16.575 258.915,16.493 259.230,16.493 260.000 M379.293 264.000 C 379.293 264.770,379.375 265.085,379.476 264.700 C 379.576 264.315,379.576 263.685,379.476 263.300 C 379.375 262.915,379.293 263.230,379.293 264.000 M17.067 263.867 C 16.652 264.282,16.753 265.600,17.200 265.600 C 17.420 265.600,17.600 265.150,17.600 264.600 C 17.600 263.553,17.508 263.426,17.067 263.867 M377.200 278.824 C 377.200 279.277,377.380 279.536,377.600 279.400 C 377.820 279.264,378.000 278.893,378.000 278.576 C 378.000 278.259,377.820 278.000,377.600 278.000 C 377.380 278.000,377.200 278.371,377.200 278.824 M19.200 282.000 C 19.200 282.440,19.380 282.800,19.600 282.800 C 19.820 282.800,20.000 282.440,20.000 282.000 C 20.000 281.560,19.820 281.200,19.600 281.200 C 19.380 281.200,19.200 281.560,19.200 282.000 M360.500 338.623 C 359.911 339.263,359.862 339.600,360.357 339.600 C 360.698 339.600,361.337 338.396,361.109 338.183 C 361.049 338.127,360.775 338.325,360.500 338.623 M352.960 352.306 C 352.521 352.599,351.447 354.400,351.711 354.400 C 351.787 354.400,352.249 353.860,352.737 353.200 C 353.661 351.950,353.695 351.816,352.960 352.306 M342.063 366.000 C 341.575 366.660,341.242 367.200,341.322 367.200 C 341.402 367.200,341.949 366.660,342.537 366.000 C 343.125 365.340,343.459 364.800,343.278 364.800 C 343.098 364.800,342.551 365.340,342.063 366.000 M62.200 374.649 C 62.860 375.291,63.471 375.772,63.557 375.718 C 63.828 375.548,62.704 374.376,61.833 373.920 C 61.267 373.623,61.384 373.857,62.200 374.649 M328.400 379.719 C 328.070 379.991,327.444 380.660,327.009 381.207 C 326.539 381.795,326.824 381.639,327.709 380.822 C 329.049 379.582,329.402 379.174,329.100 379.213 C 329.045 379.220,328.730 379.448,328.400 379.719 M323.416 384.197 C 322.764 384.729,322.327 385.261,322.445 385.378 C 322.562 385.496,323.174 385.054,323.804 384.396 C 325.182 382.958,325.028 382.879,323.416 384.197 M77.000 388.000 C 77.398 388.440,77.792 388.800,77.876 388.800 C 77.960 388.800,77.835 388.440,77.600 388.000 C 77.365 387.560,76.970 387.200,76.724 387.200 C 76.478 387.200,76.602 387.560,77.000 388.000 M254.400 430.000 C 253.893 430.440,253.657 430.800,253.877 430.800 C 254.096 430.800,254.602 430.440,255.000 430.000 C 255.398 429.560,255.634 429.200,255.523 429.200 C 255.413 429.200,254.907 429.560,254.400 430.000 M192.000 450.000 C 192.000 450.220,192.270 450.400,192.600 450.400 C 192.930 450.400,193.200 450.220,193.200 450.000 C 193.200 449.780,192.930 449.600,192.600 449.600 C 192.270 449.600,192.000 449.780,192.000 450.000 M203.600 450.000 C 203.600 450.220,203.870 450.400,204.200 450.400 C 204.530 450.400,204.800 450.220,204.800 450.000 C 204.800 449.780,204.530 449.600,204.200 449.600 C 203.870 449.600,203.600 449.780,203.600 450.000 " stroke="none" fill="#fbfafa" fill-rule="evenodd"></path><path id="path2" d="M196.642 91.866 C 188.744 99.190,166.484 108.798,151.800 111.222 C 150.260 111.477,148.081 111.919,146.958 112.205 C 136.508 114.870,104.144 115.390,87.411 113.162 C 85.658 112.929,84.125 112.678,84.007 112.604 C 83.888 112.531,81.683 112.088,79.107 111.619 C 73.785 110.652,64.879 107.857,61.197 105.999 C 58.266 104.519,58.454 104.411,57.954 107.857 C 57.735 109.366,57.474 111.140,57.373 111.800 C 57.273 112.460,56.736 117.320,56.180 122.600 C 54.930 134.464,54.958 134.212,54.652 136.400 C 54.321 138.768,52.726 160.197,52.609 163.842 C 52.560 165.405,52.421 166.845,52.302 167.042 C 50.800 169.521,51.031 241.532,52.578 253.200 C 52.680 253.970,53.134 258.290,53.587 262.800 C 54.039 267.310,54.595 271.900,54.822 273.000 C 55.050 274.100,55.330 275.630,55.445 276.400 C 56.015 280.198,57.181 287.091,57.374 287.800 C 57.493 288.240,58.042 290.760,58.594 293.400 C 59.145 296.040,59.771 298.560,59.985 299.000 C 60.198 299.440,60.660 300.970,61.012 302.400 C 63.366 311.977,69.041 325.200,73.800 332.200 C 82.273 344.661,102.423 363.017,122.560 376.617 C 123.197 377.048,124.118 377.670,124.606 378.000 C 125.416 378.547,127.580 379.913,133.320 383.499 C 134.464 384.214,137.170 385.834,139.333 387.099 C 141.495 388.365,143.745 389.686,144.333 390.036 C 150.840 393.913,170.675 403.715,176.400 405.884 C 177.830 406.425,179.184 407.021,179.409 407.208 C 179.634 407.395,181.074 408.022,182.609 408.602 C 184.144 409.182,186.840 410.202,188.600 410.868 C 190.360 411.535,193.207 412.538,194.927 413.097 L 198.054 414.114 200.927 413.276 C 204.724 412.170,210.382 410.084,215.800 407.793 C 218.220 406.770,220.830 405.697,221.600 405.409 C 223.566 404.674,231.610 400.842,238.000 397.595 C 248.025 392.501,248.600 392.200,248.800 391.954 C 248.910 391.818,249.765 391.320,250.699 390.846 C 253.245 389.555,259.920 385.695,262.268 384.156 C 263.405 383.410,264.508 382.800,264.719 382.800 C 264.930 382.800,265.337 382.517,265.624 382.171 C 265.911 381.825,266.789 381.190,267.573 380.761 C 271.433 378.650,285.630 368.632,291.399 363.950 C 302.664 354.807,315.955 341.598,321.827 333.711 C 324.376 330.287,330.315 318.790,331.390 315.200 C 331.554 314.650,331.934 313.660,332.234 313.000 C 333.144 310.999,335.429 303.634,336.392 299.600 C 336.891 297.510,337.446 295.440,337.624 295.000 C 339.072 291.433,342.562 269.241,343.600 257.000 C 344.029 251.940,344.482 246.720,344.606 245.400 C 345.696 233.827,345.711 183.323,344.626 173.400 C 344.530 172.520,344.251 168.200,344.007 163.800 C 343.478 154.288,342.537 141.858,342.008 137.400 C 341.799 135.640,341.259 130.264,340.809 125.453 C 340.358 120.643,339.920 116.593,339.835 116.453 C 339.751 116.314,339.377 113.680,339.006 110.600 C 338.635 107.520,338.284 104.953,338.227 104.895 C 338.170 104.837,336.700 105.444,334.961 106.245 C 329.372 108.817,321.071 111.179,311.800 112.834 C 304.121 114.205,277.147 115.162,268.585 114.367 C 266.833 114.204,263.060 113.863,260.200 113.608 C 250.957 112.785,233.674 109.145,229.000 107.037 C 228.340 106.739,226.810 106.183,225.600 105.800 C 222.930 104.955,221.777 104.469,216.491 101.954 C 214.230 100.880,212.205 100.000,211.991 100.000 C 211.776 100.000,211.600 99.842,211.600 99.649 C 211.600 99.455,211.074 99.079,210.431 98.813 C 208.598 98.054,205.503 96.031,200.769 92.500 C 198.080 90.494,198.116 90.499,196.642 91.866 M184.600 199.728 C 189.627 201.199,193.794 203.795,197.512 207.770 C 200.578 211.047,200.612 210.688,196.963 213.478 C 195.293 214.755,192.638 216.830,191.063 218.089 C 187.592 220.865,188.201 220.869,185.364 218.055 C 177.085 209.843,165.289 213.498,162.382 225.176 L 161.556 228.495 162.404 232.219 C 165.125 244.161,176.950 247.668,185.809 239.161 L 188.307 236.762 191.003 238.681 C 192.485 239.736,194.531 241.195,195.549 241.923 C 196.567 242.651,198.075 243.710,198.900 244.276 C 200.823 245.597,200.816 245.637,198.159 248.664 C 185.107 263.530,160.672 261.954,149.762 245.542 C 142.227 234.209,143.546 218.395,152.875 208.215 C 154.935 205.966,160.078 202.000,160.933 202.000 C 161.067 202.000,162.194 201.535,163.438 200.966 C 168.154 198.808,179.243 198.160,184.600 199.728 M234.200 199.233 C 239.909 199.915,248.726 203.487,251.054 206.060 C 251.747 206.826,251.619 207.067,247.382 213.000 C 246.597 214.100,245.490 215.675,244.924 216.500 C 243.721 218.252,243.374 218.312,241.556 217.086 C 233.801 211.856,222.000 211.346,222.000 216.240 C 222.000 218.382,225.353 220.020,233.400 221.809 C 248.729 225.217,254.996 232.286,252.850 243.746 C 249.806 259.994,222.192 264.056,204.717 250.826 C 202.257 248.963,202.157 249.284,207.023 243.457 C 211.679 237.881,211.686 237.877,214.103 239.632 C 222.491 245.722,236.400 246.701,236.400 241.200 C 236.400 238.719,233.849 237.425,225.000 235.414 C 208.915 231.758,202.561 223.952,206.165 212.271 C 209.318 202.054,219.232 197.443,234.200 199.233 M297.263 199.365 C 300.695 199.922,301.557 200.218,306.200 202.433 C 309.019 203.777,312.546 206.375,312.710 207.227 C 312.806 207.727,310.833 210.250,304.351 217.917 L 303.576 218.834 301.288 217.233 C 295.873 213.445,289.096 212.380,284.278 214.559 C 272.483 219.894,272.214 237.286,283.835 243.200 C 286.530 244.572,294.812 244.694,297.400 243.400 L 299.000 242.600 299.116 239.300 L 299.232 236.000 293.816 236.000 L 288.400 236.000 288.400 229.800 L 288.400 223.600 301.805 223.600 L 315.211 223.600 315.105 236.874 L 315.000 250.147 312.200 252.066 C 296.047 263.134,273.273 260.236,263.512 245.870 C 251.883 228.753,261.522 203.562,281.200 199.646 C 282.410 199.405,283.760 199.137,284.200 199.050 C 286.168 198.663,294.116 198.854,297.263 199.365 M98.185 200.300 C 98.816 201.066,103.602 207.162,105.200 209.236 C 109.825 215.238,113.089 219.422,117.625 225.165 L 120.600 228.931 120.813 214.365 C 120.929 206.354,121.064 199.755,121.113 199.700 C 121.765 198.955,137.212 199.713,137.403 200.500 C 137.522 200.995,137.571 214.000,137.510 229.400 L 137.400 257.400 130.000 257.508 C 123.117 257.608,122.567 257.563,122.130 256.862 C 121.872 256.447,117.953 251.358,113.422 245.554 C 108.891 239.749,104.513 234.127,103.692 233.060 C 102.871 231.993,101.480 230.222,100.600 229.124 L 99.000 227.128 98.895 242.364 L 98.790 257.600 90.595 257.600 L 82.400 257.600 82.400 228.867 C 82.400 213.063,82.520 200.013,82.667 199.867 C 83.349 199.184,97.593 199.582,98.185 200.300 " stroke="none" fill="#044363" fill-rule="evenodd"></path><path id="path3" d="M339.301 112.600 C 339.305 113.480,339.387 113.793,339.483 113.295 C 339.579 112.798,339.575 112.078,339.475 111.695 C 339.375 111.313,339.296 111.720,339.301 112.600 M312.400 112.400 C 311.033 112.688,311.028 112.695,312.200 112.719 C 312.860 112.733,313.760 112.589,314.200 112.400 C 315.162 111.987,314.364 111.987,312.400 112.400 M143.300 112.676 C 143.685 112.776,144.315 112.776,144.700 112.676 C 145.085 112.575,144.770 112.493,144.000 112.493 C 143.230 112.493,142.915 112.575,143.300 112.676 M55.314 128.600 C 55.317 129.700,55.395 130.103,55.487 129.495 C 55.579 128.886,55.577 127.986,55.482 127.495 C 55.387 127.003,55.311 127.500,55.314 128.600 M341.293 130.800 C 341.293 131.570,341.375 131.885,341.476 131.500 C 341.576 131.115,341.576 130.485,341.476 130.100 C 341.375 129.715,341.293 130.030,341.293 130.800 M341.701 134.200 C 341.705 135.080,341.787 135.393,341.883 134.895 C 341.979 134.398,341.975 133.678,341.875 133.295 C 341.775 132.913,341.696 133.320,341.701 134.200 M342.101 138.200 C 342.105 139.080,342.187 139.393,342.283 138.895 C 342.379 138.398,342.375 137.678,342.275 137.295 C 342.175 136.913,342.096 137.320,342.101 138.200 M53.301 151.400 C 53.305 152.280,53.387 152.593,53.483 152.095 C 53.579 151.598,53.575 150.878,53.475 150.495 C 53.375 150.113,53.296 150.520,53.301 151.400 M52.914 156.200 C 52.917 157.300,52.995 157.703,53.087 157.095 C 53.179 156.486,53.177 155.586,53.082 155.095 C 52.987 154.603,52.911 155.100,52.914 156.200 M343.693 158.800 C 343.693 159.570,343.775 159.885,343.876 159.500 C 343.976 159.115,343.976 158.485,343.876 158.100 C 343.775 157.715,343.693 158.030,343.693 158.800 M344.114 165.800 C 344.117 166.900,344.195 167.303,344.287 166.695 C 344.379 166.086,344.377 165.186,344.282 164.695 C 344.187 164.203,344.111 164.700,344.114 165.800 M344.528 170.400 C 344.528 171.830,344.601 172.415,344.689 171.700 C 344.778 170.985,344.778 169.815,344.689 169.100 C 344.601 168.385,344.528 168.970,344.528 170.400 M51.309 185.200 C 51.309 186.190,51.387 186.595,51.482 186.100 C 51.578 185.605,51.578 184.795,51.482 184.300 C 51.387 183.805,51.309 184.210,51.309 185.200 M345.309 187.200 C 345.309 188.190,345.387 188.595,345.482 188.100 C 345.578 187.605,345.578 186.795,345.482 186.300 C 345.387 185.805,345.309 186.210,345.309 187.200 M50.981 211.000 C 50.981 219.140,51.034 222.413,51.100 218.274 C 51.165 214.134,51.165 207.474,51.099 203.474 C 51.034 199.473,50.981 202.860,50.981 211.000 M82.661 199.900 C 82.558 200.065,84.753 200.153,87.537 200.096 C 96.879 199.904,97.856 199.757,90.324 199.678 C 86.212 199.635,82.763 199.735,82.661 199.900 M125.100 199.898 C 127.355 199.970,131.045 199.970,133.300 199.898 C 135.555 199.827,133.710 199.769,129.200 199.769 C 124.690 199.769,122.845 199.827,125.100 199.898 M120.890 214.549 C 120.805 228.147,120.763 228.870,120.100 228.356 C 119.583 227.955,119.609 228.058,120.200 228.750 L 121.000 229.685 121.109 222.216 C 121.169 218.109,121.165 211.474,121.099 207.474 C 121.034 203.473,120.940 206.657,120.890 214.549 M137.390 228.800 C 137.390 244.530,137.439 250.965,137.500 243.100 C 137.560 235.235,137.560 222.365,137.500 214.500 C 137.439 206.635,137.390 213.070,137.390 228.800 M345.744 210.800 C 345.744 212.890,345.812 213.745,345.894 212.700 C 345.976 211.655,345.976 209.945,345.894 208.900 C 345.812 207.855,345.744 208.710,345.744 210.800 M226.700 212.682 C 227.195 212.778,228.005 212.778,228.500 212.682 C 228.995 212.587,228.590 212.509,227.600 212.509 C 226.610 212.509,226.205 212.587,226.700 212.682 M205.334 217.600 C 205.334 219.250,205.405 219.925,205.491 219.100 C 205.578 218.275,205.578 216.925,205.491 216.100 C 205.405 215.275,205.334 215.950,205.334 217.600 M144.893 231.200 C 144.893 231.970,144.975 232.285,145.076 231.900 C 145.176 231.515,145.176 230.885,145.076 230.500 C 144.975 230.115,144.893 230.430,144.893 231.200 M162.006 232.033 C 162.009 232.565,162.189 233.270,162.406 233.600 C 162.682 234.022,162.723 233.785,162.542 232.800 C 162.225 231.075,161.998 230.749,162.006 232.033 M345.301 233.000 C 345.305 233.880,345.387 234.193,345.483 233.695 C 345.579 233.198,345.575 232.478,345.475 232.095 C 345.375 231.713,345.296 232.120,345.301 233.000 M51.309 234.800 C 51.309 235.790,51.387 236.195,51.482 235.700 C 51.578 235.205,51.578 234.395,51.482 233.900 C 51.387 233.405,51.309 233.810,51.309 234.800 M293.829 235.894 L 299.258 236.023 299.129 239.393 C 299.058 241.247,299.143 242.620,299.318 242.444 C 299.493 242.268,299.583 240.701,299.518 238.962 L 299.400 235.800 293.899 235.782 L 288.399 235.765 293.829 235.894 M185.781 239.300 L 184.200 241.000 185.900 239.419 C 187.481 237.948,187.784 237.600,187.481 237.600 C 187.416 237.600,186.651 238.365,185.781 239.300 M174.705 243.883 C 175.202 243.979,175.922 243.975,176.305 243.875 C 176.687 243.775,176.280 243.696,175.400 243.701 C 174.520 243.705,174.207 243.787,174.705 243.883 M289.700 244.676 C 290.085 244.776,290.715 244.776,291.100 244.676 C 291.485 244.575,291.170 244.493,290.400 244.493 C 289.630 244.493,289.315 244.575,289.700 244.676 M228.700 245.089 C 229.415 245.178,230.585 245.178,231.300 245.089 C 232.015 245.001,231.430 244.928,230.000 244.928 C 228.570 244.928,227.985 245.001,228.700 245.089 M344.514 247.400 C 344.517 248.500,344.595 248.903,344.687 248.295 C 344.779 247.686,344.777 246.786,344.682 246.295 C 344.587 245.803,344.511 246.300,344.514 247.400 M196.975 249.700 L 195.800 251.000 197.100 249.825 C 198.312 248.730,198.584 248.400,198.275 248.400 C 198.206 248.400,197.621 248.985,196.975 249.700 M344.101 251.400 C 344.105 252.280,344.187 252.593,344.283 252.095 C 344.379 251.598,344.375 250.878,344.275 250.495 C 344.175 250.113,344.096 250.520,344.101 251.400 M52.893 258.000 C 52.893 258.770,52.975 259.085,53.076 258.700 C 53.176 258.315,53.176 257.685,53.076 257.300 C 52.975 256.915,52.893 257.230,52.893 258.000 M60.056 300.234 C 60.291 301.095,60.576 301.890,60.689 302.000 C 61.041 302.344,60.334 299.420,59.972 299.034 C 59.783 298.833,59.821 299.373,60.056 300.234 M331.979 313.455 C 331.758 314.036,331.652 314.585,331.743 314.676 C 331.833 314.767,332.099 314.292,332.333 313.620 C 332.853 312.128,332.539 311.982,331.979 313.455 M327.000 324.800 C 326.659 325.460,326.469 326.000,326.579 326.000 C 326.689 326.000,327.059 325.460,327.400 324.800 C 327.741 324.140,327.931 323.600,327.821 323.600 C 327.711 323.600,327.341 324.140,327.000 324.800 M79.600 340.125 C 79.600 340.194,80.185 340.779,80.900 341.425 L 82.200 342.600 81.025 341.300 C 79.930 340.088,79.600 339.816,79.600 340.125 M312.589 344.500 L 309.800 347.400 312.700 344.611 C 315.394 342.020,315.783 341.600,315.489 341.600 C 315.428 341.600,314.123 342.905,312.589 344.500 M87.583 348.500 C 88.564 349.545,89.419 350.400,89.483 350.400 C 89.784 350.400,89.466 350.041,87.700 348.383 L 85.800 346.600 87.583 348.500 M305.785 351.300 L 303.800 353.400 305.900 351.415 C 307.055 350.323,308.000 349.378,308.000 349.315 C 308.000 349.017,307.629 349.349,305.785 351.300 M96.000 356.125 C 96.000 356.194,96.585 356.779,97.300 357.425 L 98.600 358.600 97.425 357.300 C 96.330 356.088,96.000 355.816,96.000 356.125 M205.400 411.814 C 204.400 412.296,204.366 412.351,205.200 412.148 C 206.333 411.871,207.607 411.221,207.000 411.230 C 206.780 411.233,206.060 411.496,205.400 411.814 " stroke="none" fill="#606f82" fill-rule="evenodd"></path><path id="path4" d="M197.549 90.700 C 197.049 91.337,197.064 91.350,197.712 90.841 C 198.337 90.350,198.555 90.399,199.512 91.241 L 200.600 92.200 199.630 91.100 C 198.492 89.809,198.280 89.768,197.549 90.700 M204.269 94.832 C 204.766 95.433,207.200 96.964,207.200 96.676 C 207.200 96.583,206.435 96.002,205.500 95.385 C 204.565 94.768,204.011 94.520,204.269 94.832 M182.700 100.229 C 181.205 101.040,181.296 101.378,182.800 100.600 C 183.460 100.259,184.000 99.894,184.000 99.790 C 184.000 99.532,183.957 99.547,182.700 100.229 M176.000 103.400 C 175.450 103.714,175.180 103.972,175.400 103.972 C 175.620 103.972,176.250 103.714,176.800 103.400 C 177.350 103.086,177.620 102.828,177.400 102.828 C 177.180 102.828,176.550 103.086,176.000 103.400 M335.600 105.400 C 334.610 105.930,333.942 106.372,334.116 106.382 C 334.541 106.406,337.600 104.834,337.600 104.592 C 337.600 104.327,337.617 104.320,335.600 105.400 M171.000 105.414 C 170.000 105.896,169.966 105.951,170.800 105.748 C 171.933 105.471,173.207 104.821,172.600 104.830 C 172.380 104.833,171.660 105.096,171.000 105.414 M338.893 107.600 C 338.893 108.370,338.975 108.685,339.076 108.300 C 339.176 107.915,339.176 107.285,339.076 106.900 C 338.975 106.515,338.893 106.830,338.893 107.600 M65.200 107.533 C 65.530 107.736,66.250 108.024,66.800 108.171 C 67.495 108.357,67.617 108.325,67.200 108.067 C 66.870 107.864,66.150 107.576,65.600 107.429 C 64.905 107.243,64.783 107.275,65.200 107.533 M163.000 108.000 C 162.496 108.217,162.422 108.344,162.800 108.344 C 163.130 108.344,163.760 108.189,164.200 108.000 C 164.704 107.783,164.778 107.656,164.400 107.656 C 164.070 107.656,163.440 107.811,163.000 108.000 M74.200 110.400 C 74.640 110.589,75.270 110.744,75.600 110.744 C 75.978 110.744,75.904 110.617,75.400 110.400 C 74.960 110.211,74.330 110.056,74.000 110.056 C 73.622 110.056,73.696 110.183,74.200 110.400 M153.600 110.400 C 152.808 110.654,152.767 110.720,153.400 110.720 C 153.840 110.720,154.650 110.576,155.200 110.400 C 155.992 110.146,156.033 110.080,155.400 110.080 C 154.960 110.080,154.150 110.224,153.600 110.400 M241.400 110.355 C 241.840 110.544,243.010 110.807,244.000 110.941 C 245.184 111.100,245.458 111.071,244.800 110.854 C 243.307 110.362,240.430 109.940,241.400 110.355 M87.905 113.083 C 88.402 113.179,89.122 113.175,89.505 113.075 C 89.887 112.975,89.480 112.896,88.600 112.901 C 87.720 112.905,87.407 112.987,87.905 113.083 M138.900 113.076 C 139.285 113.176,139.915 113.176,140.300 113.076 C 140.685 112.975,140.370 112.893,139.600 112.893 C 138.830 112.893,138.515 112.975,138.900 113.076 M256.305 113.083 C 256.802 113.179,257.522 113.175,257.905 113.075 C 258.287 112.975,257.880 112.896,257.000 112.901 C 256.120 112.905,255.807 112.987,256.305 113.083 M307.300 113.076 C 307.685 113.176,308.315 113.176,308.700 113.076 C 309.085 112.975,308.770 112.893,308.000 112.893 C 307.230 112.893,306.915 112.975,307.300 113.076 M90.900 113.476 C 91.285 113.576,91.915 113.576,92.300 113.476 C 92.685 113.375,92.370 113.293,91.600 113.293 C 90.830 113.293,90.515 113.375,90.900 113.476 M136.100 113.476 C 136.485 113.576,137.115 113.576,137.500 113.476 C 137.885 113.375,137.570 113.293,136.800 113.293 C 136.030 113.293,135.715 113.375,136.100 113.476 M259.300 113.476 C 259.685 113.576,260.315 113.576,260.700 113.476 C 261.085 113.375,260.770 113.293,260.000 113.293 C 259.230 113.293,258.915 113.375,259.300 113.476 M304.500 113.476 C 304.885 113.576,305.515 113.576,305.900 113.476 C 306.285 113.375,305.970 113.293,305.200 113.293 C 304.430 113.293,304.115 113.375,304.500 113.476 M95.105 113.883 C 95.602 113.979,96.322 113.975,96.705 113.875 C 97.087 113.775,96.680 113.696,95.800 113.701 C 94.920 113.705,94.607 113.787,95.105 113.883 M131.700 113.876 C 132.085 113.976,132.715 113.976,133.100 113.876 C 133.485 113.775,133.170 113.693,132.400 113.693 C 131.630 113.693,131.315 113.775,131.700 113.876 M263.505 113.883 C 264.002 113.979,264.722 113.975,265.105 113.875 C 265.487 113.775,265.080 113.696,264.200 113.701 C 263.320 113.705,263.007 113.787,263.505 113.883 M300.305 113.883 C 300.802 113.979,301.522 113.975,301.905 113.875 C 302.287 113.775,301.880 113.696,301.000 113.701 C 300.120 113.705,299.807 113.787,300.305 113.883 M100.705 114.283 C 101.202 114.379,101.922 114.375,102.305 114.275 C 102.687 114.175,102.280 114.096,101.400 114.101 C 100.520 114.105,100.207 114.187,100.705 114.283 M126.100 114.276 C 126.485 114.376,127.115 114.376,127.500 114.276 C 127.885 114.175,127.570 114.093,126.800 114.093 C 126.030 114.093,125.715 114.175,126.100 114.276 M269.300 114.276 C 269.685 114.376,270.315 114.376,270.700 114.276 C 271.085 114.175,270.770 114.093,270.000 114.093 C 269.230 114.093,268.915 114.175,269.300 114.276 M294.500 114.276 C 294.885 114.376,295.515 114.376,295.900 114.276 C 296.285 114.175,295.970 114.093,295.200 114.093 C 294.430 114.093,294.115 114.175,294.500 114.276 M111.516 114.697 C 112.899 114.775,115.059 114.774,116.316 114.695 C 117.572 114.616,116.440 114.552,113.800 114.553 C 111.160 114.553,110.132 114.618,111.516 114.697 M280.316 114.697 C 281.699 114.775,283.859 114.774,285.116 114.695 C 286.372 114.616,285.240 114.552,282.600 114.553 C 279.960 114.553,278.932 114.618,280.316 114.697 M56.101 119.400 C 56.105 120.280,56.187 120.593,56.283 120.095 C 56.379 119.598,56.375 118.878,56.275 118.495 C 56.175 118.113,56.096 118.520,56.101 119.400 M55.709 122.800 C 55.709 123.790,55.787 124.195,55.882 123.700 C 55.978 123.205,55.978 122.395,55.882 121.900 C 55.787 121.405,55.709 121.810,55.709 122.800 M340.893 124.800 C 340.893 125.570,340.975 125.885,341.076 125.500 C 341.176 125.115,341.176 124.485,341.076 124.100 C 340.975 123.715,340.893 124.030,340.893 124.800 M341.293 128.400 C 341.293 129.170,341.375 129.485,341.476 129.100 C 341.576 128.715,341.576 128.085,341.476 127.700 C 341.375 127.315,341.293 127.630,341.293 128.400 M341.693 131.600 C 341.693 132.370,341.775 132.685,341.876 132.300 C 341.976 131.915,341.976 131.285,341.876 130.900 C 341.775 130.515,341.693 130.830,341.693 131.600 M342.493 140.800 C 342.493 141.570,342.575 141.885,342.676 141.500 C 342.776 141.115,342.776 140.485,342.676 140.100 C 342.575 139.715,342.493 140.030,342.493 140.800 M53.400 145.600 C 53.241 147.824,53.197 149.730,53.303 149.836 C 53.408 149.942,53.624 148.207,53.782 145.982 C 53.940 143.756,53.983 141.850,53.879 141.746 C 53.775 141.641,53.559 143.376,53.400 145.600 M343.301 150.600 C 343.305 151.480,343.387 151.793,343.483 151.295 C 343.579 150.798,343.575 150.078,343.475 149.695 C 343.375 149.313,343.296 149.720,343.301 150.600 M52.909 152.800 C 52.909 153.790,52.987 154.195,53.082 153.700 C 53.178 153.205,53.178 152.395,53.082 151.900 C 52.987 151.405,52.909 151.810,52.909 152.800 M343.724 155.400 C 343.726 156.720,343.801 157.212,343.890 156.493 C 343.979 155.774,343.977 154.694,343.886 154.093 C 343.795 153.492,343.722 154.080,343.724 155.400 M52.509 158.000 C 52.509 158.990,52.587 159.395,52.682 158.900 C 52.778 158.405,52.778 157.595,52.682 157.100 C 52.587 156.605,52.509 157.010,52.509 158.000 M344.131 161.400 C 344.133 162.940,344.205 163.521,344.292 162.691 C 344.379 161.861,344.377 160.601,344.289 159.891 C 344.200 159.181,344.129 159.860,344.131 161.400 M52.114 165.000 C 52.117 166.100,52.195 166.503,52.287 165.895 C 52.379 165.286,52.377 164.386,52.282 163.895 C 52.187 163.403,52.111 163.900,52.114 165.000 M344.514 166.200 C 344.517 167.300,344.595 167.703,344.687 167.095 C 344.779 166.486,344.777 165.586,344.682 165.095 C 344.587 164.603,344.511 165.100,344.514 166.200 M51.720 171.600 C 51.720 172.810,51.795 173.305,51.887 172.700 C 51.978 172.095,51.978 171.105,51.887 170.500 C 51.795 169.895,51.720 170.390,51.720 171.600 M344.924 174.600 C 344.926 175.920,345.001 176.412,345.090 175.693 C 345.179 174.974,345.177 173.894,345.086 173.293 C 344.995 172.692,344.922 173.280,344.924 174.600 M51.334 180.800 C 51.334 182.450,51.405 183.125,51.491 182.300 C 51.578 181.475,51.578 180.125,51.491 179.300 C 51.405 178.475,51.334 179.150,51.334 180.800 M345.314 183.800 C 345.317 184.900,345.395 185.303,345.487 184.695 C 345.579 184.086,345.577 183.186,345.482 182.695 C 345.387 182.203,345.311 182.700,345.314 183.800 M50.951 191.200 C 50.951 193.730,51.016 194.765,51.096 193.500 C 51.175 192.235,51.175 190.165,51.096 188.900 C 51.016 187.635,50.951 188.670,50.951 191.200 M345.766 200.000 C 345.766 204.070,345.825 205.735,345.898 203.700 C 345.971 201.665,345.971 198.335,345.898 196.300 C 345.825 194.265,345.766 195.930,345.766 200.000 M171.905 199.083 C 172.402 199.179,173.122 199.175,173.505 199.075 C 173.887 198.975,173.480 198.896,172.600 198.901 C 171.720 198.905,171.407 198.987,171.905 199.083 M177.500 199.082 C 177.995 199.178,178.805 199.178,179.300 199.082 C 179.795 198.987,179.390 198.909,178.400 198.909 C 177.410 198.909,177.005 198.987,177.500 199.082 M226.711 199.093 C 227.651 199.178,229.091 199.177,229.911 199.091 C 230.730 199.005,229.960 198.936,228.200 198.937 C 226.440 198.939,225.770 199.009,226.711 199.093 M285.905 199.083 C 286.402 199.179,287.122 199.175,287.505 199.075 C 287.887 198.975,287.480 198.896,286.600 198.901 C 285.720 198.905,285.407 198.987,285.905 199.083 M291.900 199.082 C 292.395 199.178,293.205 199.178,293.700 199.082 C 294.195 198.987,293.790 198.909,292.800 198.909 C 291.810 198.909,291.405 198.987,291.900 199.082 M233.300 199.476 C 233.685 199.576,234.315 199.576,234.700 199.476 C 235.085 199.375,234.770 199.293,234.000 199.293 C 233.230 199.293,232.915 199.375,233.300 199.476 M281.600 199.600 C 280.256 200.031,281.708 200.031,283.400 199.600 C 284.478 199.326,284.498 199.294,283.600 199.287 C 283.050 199.283,282.150 199.424,281.600 199.600 M183.600 200.000 C 184.968 200.438,186.019 200.438,185.000 200.000 C 184.560 199.811,183.840 199.662,183.400 199.668 C 182.757 199.677,182.796 199.743,183.600 200.000 M82.584 200.500 C 82.479 200.775,82.440 213.690,82.496 229.200 L 82.600 257.400 90.600 257.400 L 98.600 257.400 98.705 242.079 C 98.782 230.716,98.928 226.832,99.267 227.041 C 99.550 227.217,99.614 227.146,99.434 226.855 C 98.569 225.456,98.400 227.936,98.400 242.024 L 98.400 257.200 90.595 257.200 L 82.790 257.200 82.895 228.600 C 82.953 212.870,82.949 200.000,82.887 200.000 C 82.826 200.000,82.689 200.225,82.584 200.500 M136.800 228.600 L 136.800 257.200 129.880 257.200 C 124.910 257.200,122.802 257.059,122.399 256.700 C 121.922 256.275,121.918 256.304,122.368 256.900 C 122.838 257.521,123.707 257.600,130.049 257.600 L 137.200 257.600 137.200 228.800 C 137.200 212.960,137.110 200.000,137.000 200.000 C 136.890 200.000,136.800 212.870,136.800 228.600 M50.573 210.800 C 50.573 216.190,50.630 218.395,50.699 215.700 C 50.768 213.005,50.768 208.595,50.699 205.900 C 50.630 203.205,50.573 205.410,50.573 210.800 M214.700 201.829 C 213.205 202.640,213.296 202.978,214.800 202.200 C 215.460 201.859,216.000 201.494,216.000 201.390 C 216.000 201.132,215.957 201.147,214.700 201.829 M160.700 202.229 C 159.149 203.070,159.325 203.361,160.900 202.559 C 162.408 201.793,162.675 201.594,162.167 201.616 C 161.965 201.625,161.305 201.901,160.700 202.229 M210.175 205.300 L 209.000 206.600 210.300 205.425 C 211.015 204.779,211.600 204.194,211.600 204.125 C 211.600 203.816,211.270 204.088,210.175 205.300 M269.985 205.229 L 268.600 206.458 270.100 205.381 C 271.426 204.430,271.857 204.000,271.485 204.000 C 271.422 204.000,270.747 204.553,269.985 205.229 M196.600 207.200 C 197.459 208.080,198.252 208.800,198.362 208.800 C 198.472 208.800,197.859 208.080,197.000 207.200 C 196.141 206.320,195.348 205.600,195.238 205.600 C 195.128 205.600,195.741 206.320,196.600 207.200 M308.800 212.000 C 307.879 213.100,307.216 214.000,307.326 214.000 C 307.436 214.000,308.279 213.100,309.200 212.000 C 310.121 210.900,310.784 210.000,310.674 210.000 C 310.564 210.000,309.721 210.900,308.800 212.000 M224.000 212.818 C 223.562 213.115,223.724 213.152,224.600 212.956 C 226.071 212.627,226.390 212.398,225.367 212.406 C 224.945 212.409,224.330 212.595,224.000 212.818 M229.700 212.676 C 230.085 212.776,230.715 212.776,231.100 212.676 C 231.485 212.575,231.170 212.493,230.400 212.493 C 229.630 212.493,229.315 212.575,229.700 212.676 M237.233 214.549 C 237.645 214.917,240.000 216.000,240.000 215.821 C 240.000 215.590,237.782 214.400,237.353 214.400 C 237.196 214.400,237.142 214.467,237.233 214.549 M282.100 215.196 C 281.385 215.632,280.800 216.075,280.800 216.181 C 280.800 216.286,281.430 216.001,282.200 215.547 C 282.970 215.093,283.600 214.649,283.600 214.560 C 283.600 214.305,283.474 214.358,282.100 215.196 M296.833 214.549 C 297.245 214.917,299.600 216.000,299.600 215.821 C 299.600 215.590,297.382 214.400,296.953 214.400 C 296.796 214.400,296.742 214.467,296.833 214.549 M345.765 221.200 C 345.765 225.050,345.825 226.625,345.898 224.700 C 345.971 222.775,345.971 219.625,345.898 217.700 C 345.825 215.775,345.765 217.350,345.765 221.200 M191.585 217.229 L 190.200 218.458 191.700 217.381 C 193.026 216.430,193.457 216.000,193.085 216.000 C 193.022 216.000,192.347 216.553,191.585 217.229 M243.985 217.018 C 243.703 217.358,243.186 217.528,242.836 217.395 C 242.323 217.200,242.298 217.251,242.704 217.661 C 243.112 218.071,243.379 217.999,244.093 217.284 C 244.580 216.798,244.870 216.400,244.738 216.400 C 244.606 216.400,244.267 216.678,243.985 217.018 M162.444 222.844 C 162.198 223.551,162.066 224.200,162.152 224.285 C 162.238 224.371,162.509 223.862,162.756 223.156 C 163.002 222.449,163.134 221.800,163.048 221.715 C 162.962 221.629,162.691 222.138,162.444 222.844 M301.500 223.897 L 314.800 224.011 314.800 236.680 C 314.800 249.247,314.793 249.357,313.900 250.374 L 313.000 251.400 314.105 250.425 L 315.211 249.450 315.105 236.625 L 315.000 223.800 301.600 223.792 L 288.200 223.783 301.500 223.897 M145.293 225.200 C 145.293 225.970,145.375 226.285,145.476 225.900 C 145.576 225.515,145.576 224.885,145.476 224.500 C 145.375 224.115,145.293 224.430,145.293 225.200 M241.200 224.600 C 241.750 224.914,242.380 225.172,242.600 225.172 C 242.820 225.172,242.550 224.914,242.000 224.600 C 241.450 224.286,240.820 224.028,240.600 224.028 C 240.380 224.028,240.650 224.286,241.200 224.600 M50.950 229.800 C 50.951 232.220,51.016 233.158,51.096 231.885 C 51.176 230.612,51.175 228.632,51.094 227.485 C 51.014 226.338,50.949 227.380,50.950 229.800 M258.534 228.800 C 258.534 230.450,258.605 231.125,258.691 230.300 C 258.778 229.475,258.778 228.125,258.691 227.300 C 258.605 226.475,258.534 227.150,258.534 228.800 M274.924 229.000 C 274.926 230.320,275.001 230.812,275.090 230.093 C 275.179 229.374,275.177 228.294,275.086 227.693 C 274.995 227.092,274.922 227.680,274.924 229.000 M144.893 228.800 C 144.893 229.570,144.975 229.885,145.076 229.500 C 145.176 229.115,145.176 228.485,145.076 228.100 C 144.975 227.715,144.893 228.030,144.893 228.800 M210.767 229.345 C 211.300 230.001,212.800 230.993,212.800 230.689 C 212.800 230.613,212.215 230.122,211.500 229.599 C 210.696 229.010,210.416 228.913,210.767 229.345 M145.293 232.400 C 145.293 233.170,145.375 233.485,145.476 233.100 C 145.576 232.715,145.576 232.085,145.476 231.700 C 145.375 231.315,145.293 231.630,145.293 232.400 M251.530 233.182 C 251.898 234.051,252.256 234.604,252.324 234.409 C 252.450 234.049,251.313 231.600,251.019 231.600 C 250.931 231.600,251.161 232.312,251.530 233.182 M162.430 234.400 C 162.428 234.976,163.557 237.266,163.586 236.746 C 163.594 236.606,163.337 235.886,163.016 235.146 C 162.694 234.406,162.431 234.070,162.430 234.400 M345.309 236.000 C 345.309 236.990,345.387 237.395,345.482 236.900 C 345.578 236.405,345.578 235.595,345.482 235.100 C 345.387 234.605,345.309 235.010,345.309 236.000 M259.206 235.833 C 259.209 236.255,259.395 236.870,259.618 237.200 C 259.915 237.638,259.952 237.476,259.756 236.600 C 259.427 235.129,259.198 234.810,259.206 235.833 M299.533 238.918 C 299.645 241.660,299.556 242.243,298.957 242.681 C 298.566 242.967,298.425 243.200,298.644 243.200 C 299.820 243.200,300.780 236.533,299.700 235.860 C 299.535 235.758,299.460 237.134,299.533 238.918 M276.400 236.289 C 276.400 236.521,276.771 237.136,277.224 237.656 L 278.047 238.600 277.345 237.400 C 276.420 235.821,276.400 235.797,276.400 236.289 M51.328 238.800 C 51.328 240.230,51.401 240.815,51.489 240.100 C 51.578 239.385,51.578 238.215,51.489 237.500 C 51.401 236.785,51.328 237.370,51.328 238.800 M252.931 239.800 C 252.933 241.340,253.005 241.921,253.092 241.091 C 253.179 240.261,253.177 239.001,253.089 238.291 C 253.000 237.581,252.929 238.260,252.931 239.800 M185.775 239.700 L 184.600 241.000 185.900 239.825 C 187.112 238.730,187.384 238.400,187.075 238.400 C 187.006 238.400,186.421 238.985,185.775 239.700 M215.600 240.979 C 215.600 241.089,216.140 241.459,216.800 241.800 C 217.460 242.141,218.000 242.331,218.000 242.221 C 218.000 242.111,217.460 241.741,216.800 241.400 C 216.140 241.059,215.600 240.869,215.600 240.979 M280.367 241.345 C 280.900 242.001,282.400 242.993,282.400 242.689 C 282.400 242.613,281.815 242.122,281.100 241.599 C 280.296 241.010,280.016 240.913,280.367 241.345 M344.914 243.800 C 344.917 244.900,344.995 245.303,345.087 244.695 C 345.179 244.086,345.177 243.186,345.082 242.695 C 344.987 242.203,344.911 242.700,344.914 243.800 M252.250 244.450 C 252.109 245.153,252.069 245.802,252.159 245.892 C 252.250 245.983,252.448 245.491,252.600 244.800 C 252.752 244.109,252.793 243.459,252.691 243.358 C 252.589 243.256,252.391 243.747,252.250 244.450 M223.400 244.381 C 224.168 244.729,226.310 244.956,225.967 244.653 C 225.875 244.572,225.080 244.396,224.200 244.262 C 223.085 244.093,222.842 244.129,223.400 244.381 M199.295 245.025 C 199.830 245.662,199.881 245.959,199.515 246.325 C 199.254 246.586,199.144 246.800,199.271 246.800 C 200.177 246.800,200.318 245.655,199.499 244.961 C 198.602 244.202,198.602 244.202,199.295 245.025 M287.300 244.676 C 287.685 244.776,288.315 244.776,288.700 244.676 C 289.085 244.575,288.770 244.493,288.000 244.493 C 287.230 244.493,286.915 244.575,287.300 244.676 M292.300 244.682 C 292.795 244.778,293.605 244.778,294.100 244.682 C 294.595 244.587,294.190 244.509,293.200 244.509 C 292.210 244.509,291.805 244.587,292.300 244.682 M51.709 246.400 C 51.709 247.390,51.787 247.795,51.882 247.300 C 51.978 246.805,51.978 245.995,51.882 245.500 C 51.787 245.005,51.709 245.410,51.709 246.400 M204.376 246.828 L 202.678 248.856 203.624 249.728 L 204.570 250.600 203.836 249.714 C 203.111 248.839,203.122 248.804,204.788 246.814 C 205.716 245.706,206.384 244.800,206.274 244.800 C 206.164 244.800,205.310 245.713,204.376 246.828 M197.775 248.500 L 196.600 249.800 197.900 248.625 C 199.112 247.530,199.384 247.200,199.075 247.200 C 199.006 247.200,198.421 247.785,197.775 248.500 M153.400 250.000 C 154.483 251.100,155.460 252.000,155.570 252.000 C 155.680 252.000,154.883 251.100,153.800 250.000 C 152.717 248.900,151.740 248.000,151.630 248.000 C 151.520 248.000,152.317 248.900,153.400 250.000 M265.600 248.525 C 265.600 248.594,266.185 249.179,266.900 249.825 L 268.200 251.000 267.025 249.700 C 265.930 248.488,265.600 248.216,265.600 248.525 M344.501 250.600 C 344.505 251.480,344.587 251.793,344.683 251.295 C 344.779 250.798,344.775 250.078,344.675 249.695 C 344.575 249.313,344.496 249.720,344.501 250.600 M117.591 250.788 C 118.057 251.441,118.642 252.102,118.891 252.256 C 119.141 252.411,118.841 251.876,118.225 251.068 C 116.888 249.315,116.384 249.092,117.591 250.788 M52.093 251.600 C 52.093 252.370,52.175 252.685,52.276 252.300 C 52.376 251.915,52.376 251.285,52.276 250.900 C 52.175 250.515,52.093 250.830,52.093 251.600 M120.400 254.400 C 121.097 255.280,121.757 256.000,121.867 256.000 C 121.977 256.000,121.497 255.280,120.800 254.400 C 120.103 253.520,119.443 252.800,119.333 252.800 C 119.223 252.800,119.703 253.520,120.400 254.400 M344.114 254.600 C 344.117 255.700,344.195 256.103,344.287 255.495 C 344.379 254.886,344.377 253.986,344.282 253.495 C 344.187 253.003,344.111 253.500,344.114 254.600 M52.493 256.800 C 52.493 257.570,52.575 257.885,52.676 257.500 C 52.776 257.115,52.776 256.485,52.676 256.100 C 52.575 255.715,52.493 256.030,52.493 256.800 M218.200 257.200 C 218.640 257.389,219.360 257.538,219.800 257.532 C 220.443 257.523,220.404 257.457,219.600 257.200 C 218.232 256.762,217.181 256.762,218.200 257.200 M300.000 257.200 C 299.176 257.464,299.141 257.526,299.800 257.554 C 300.240 257.573,300.870 257.413,301.200 257.200 C 301.901 256.747,301.414 256.747,300.000 257.200 M343.709 258.800 C 343.709 259.790,343.787 260.195,343.882 259.700 C 343.978 259.205,343.978 258.395,343.882 257.900 C 343.787 257.405,343.709 257.810,343.709 258.800 M173.511 258.693 C 174.451 258.778,175.891 258.777,176.711 258.691 C 177.530 258.605,176.760 258.536,175.000 258.537 C 173.240 258.539,172.570 258.609,173.511 258.693 M288.311 258.693 C 289.251 258.778,290.691 258.777,291.511 258.691 C 292.330 258.605,291.560 258.536,289.800 258.537 C 288.040 258.539,287.370 258.609,288.311 258.693 M52.901 260.600 C 52.905 261.480,52.987 261.793,53.083 261.295 C 53.179 260.798,53.175 260.078,53.075 259.695 C 52.975 259.313,52.896 259.720,52.901 260.600 M53.301 264.200 C 53.305 265.080,53.387 265.393,53.483 264.895 C 53.579 264.398,53.575 263.678,53.475 263.295 C 53.375 262.913,53.296 263.320,53.301 264.200 M53.693 267.200 C 53.693 267.970,53.775 268.285,53.876 267.900 C 53.976 267.515,53.976 266.885,53.876 266.500 C 53.775 266.115,53.693 266.430,53.693 267.200 M341.293 277.600 C 341.293 278.370,341.375 278.685,341.476 278.300 C 341.576 277.915,341.576 277.285,341.476 276.900 C 341.375 276.515,341.293 276.830,341.293 277.600 M336.629 299.429 C 336.481 300.015,336.438 300.572,336.532 300.666 C 336.627 300.760,336.824 300.358,336.971 299.771 C 337.119 299.185,337.162 298.628,337.068 298.534 C 336.973 298.440,336.776 298.842,336.629 299.429 M60.856 303.600 C 60.856 303.930,61.011 304.560,61.200 305.000 C 61.417 305.504,61.544 305.578,61.544 305.200 C 61.544 304.870,61.389 304.240,61.200 303.800 C 60.983 303.296,60.856 303.222,60.856 303.600 M328.865 321.417 C 328.195 322.888,328.323 323.202,329.047 321.865 C 329.386 321.240,329.588 320.654,329.496 320.563 C 329.405 320.471,329.121 320.856,328.865 321.417 M67.236 321.000 C 67.236 321.220,67.670 322.210,68.200 323.200 C 68.730 324.190,69.164 324.820,69.164 324.600 C 69.164 324.380,68.730 323.390,68.200 322.400 C 67.670 321.410,67.236 320.780,67.236 321.000 M316.575 340.500 L 315.400 341.800 316.700 340.625 C 317.415 339.979,318.000 339.394,318.000 339.325 C 318.000 339.016,317.670 339.288,316.575 340.500 M81.983 342.900 C 82.964 343.945,83.819 344.800,83.883 344.800 C 84.184 344.800,83.866 344.441,82.100 342.783 L 80.200 341.000 81.983 342.900 M308.971 348.384 C 305.875 351.446,303.625 353.795,303.971 353.602 C 304.658 353.220,315.110 342.795,314.794 342.808 C 314.687 342.812,312.067 345.321,308.971 348.384 M91.800 352.800 C 93.106 354.120,94.265 355.200,94.375 355.200 C 94.485 355.200,93.506 354.120,92.200 352.800 C 90.894 351.480,89.735 350.400,89.625 350.400 C 89.515 350.400,90.494 351.480,91.800 352.800 M300.981 356.100 L 299.400 357.800 301.100 356.219 C 302.681 354.748,302.984 354.400,302.681 354.400 C 302.616 354.400,301.851 355.165,300.981 356.100 M96.400 357.000 C 97.146 357.770,97.847 358.400,97.957 358.400 C 98.067 358.400,97.546 357.770,96.800 357.000 C 96.054 356.230,95.353 355.600,95.243 355.600 C 95.133 355.600,95.654 356.230,96.400 357.000 M297.775 358.900 L 296.600 360.200 297.900 359.025 C 298.615 358.379,299.200 357.794,299.200 357.725 C 299.200 357.416,298.870 357.688,297.775 358.900 M98.400 358.525 C 98.400 358.594,98.985 359.179,99.700 359.825 L 101.000 361.000 99.825 359.700 C 98.730 358.488,98.400 358.216,98.400 358.525 M109.600 367.746 C 109.600 367.856,110.140 368.330,110.800 368.800 C 111.460 369.270,112.000 369.564,112.000 369.454 C 112.000 369.344,111.460 368.870,110.800 368.400 C 110.140 367.930,109.600 367.636,109.600 367.746 M285.000 369.050 C 284.281 369.662,284.134 369.905,284.633 369.657 C 285.366 369.293,286.741 367.976,286.349 368.014 C 286.267 368.022,285.660 368.488,285.000 369.050 M114.000 370.946 C 114.000 371.056,114.540 371.530,115.200 372.000 C 115.860 372.470,116.400 372.764,116.400 372.654 C 116.400 372.544,115.860 372.070,115.200 371.600 C 114.540 371.130,114.000 370.836,114.000 370.946 M279.000 373.435 L 277.800 374.466 279.100 373.606 C 279.815 373.133,280.400 372.668,280.400 372.573 C 280.400 372.273,280.231 372.378,279.000 373.435 M116.800 372.946 C 116.800 373.056,117.340 373.530,118.000 374.000 C 118.660 374.470,119.200 374.764,119.200 374.654 C 119.200 374.544,118.660 374.070,118.000 373.600 C 117.340 373.130,116.800 372.836,116.800 372.946 M275.000 376.235 L 273.800 377.266 275.100 376.406 C 275.815 375.933,276.400 375.468,276.400 375.373 C 276.400 375.073,276.231 375.178,275.000 376.235 M120.800 375.746 C 120.800 375.856,121.340 376.330,122.000 376.800 C 122.660 377.270,123.200 377.564,123.200 377.454 C 123.200 377.344,122.660 376.870,122.000 376.400 C 121.340 375.930,120.800 375.636,120.800 375.746 M270.900 378.846 C 269.537 379.719,269.095 380.306,270.300 379.643 C 271.218 379.139,272.656 378.027,272.400 378.019 C 272.290 378.016,271.615 378.388,270.900 378.846 M250.700 391.029 C 249.205 391.840,249.296 392.178,250.800 391.400 C 251.460 391.059,252.000 390.694,252.000 390.590 C 252.000 390.332,251.957 390.347,250.700 391.029 M153.600 395.384 C 153.600 395.494,154.320 395.951,155.200 396.400 C 156.080 396.849,156.800 397.126,156.800 397.016 C 156.800 396.906,156.080 396.449,155.200 396.000 C 154.320 395.551,153.600 395.274,153.600 395.384 M236.000 398.800 C 235.230 399.222,234.744 399.574,234.920 399.583 C 235.344 399.605,237.600 398.432,237.600 398.190 C 237.600 397.928,237.577 397.937,236.000 398.800 M164.400 401.000 C 165.390 401.530,166.380 401.964,166.600 401.964 C 166.820 401.964,166.190 401.530,165.200 401.000 C 164.210 400.470,163.220 400.036,163.000 400.036 C 162.780 400.036,163.410 400.470,164.400 401.000 M170.400 403.800 C 170.950 404.114,171.580 404.372,171.800 404.372 C 172.020 404.372,171.750 404.114,171.200 403.800 C 170.650 403.486,170.020 403.228,169.800 403.228 C 169.580 403.228,169.850 403.486,170.400 403.800 M175.200 405.789 C 175.200 406.106,178.100 407.233,178.328 407.005 C 178.441 406.892,178.435 406.800,178.316 406.800 C 178.196 406.800,177.446 406.528,176.649 406.195 C 175.852 405.862,175.200 405.679,175.200 405.789 M220.000 406.200 C 219.450 406.514,219.180 406.772,219.400 406.772 C 219.620 406.772,220.250 406.514,220.800 406.200 C 221.350 405.886,221.620 405.628,221.400 405.628 C 221.180 405.628,220.550 405.886,220.000 406.200 M208.200 411.014 C 207.200 411.496,207.166 411.551,208.000 411.348 C 209.133 411.071,210.407 410.421,209.800 410.430 C 209.580 410.433,208.860 410.696,208.200 411.014 " stroke="none" fill="#7c8c94" fill-rule="evenodd"></path></g></svg>